grf
version=1
nRows=14
nColumns=37
inDegrees=no
endheader
time	ground_force_1_vx	ground_force_1_vy	ground_force_1_vz	ground_force_1_px	ground_force_1_py	ground_force_1_pz	ground_moment_1_mx	ground_moment_1_my	ground_moment_1_mz	ground_force_2_vx	ground_force_2_vy	ground_force_2_vz	ground_force_2_px	ground_force_2_py	ground_force_2_pz	ground_moment_2_mx	ground_moment_2_my	ground_moment_2_mz	ground_force_3_vx	ground_force_3_vy	ground_force_3_vz	ground_force_3_px	ground_force_3_py	ground_force_3_pz	ground_moment_3_mx	ground_moment_3_my	ground_moment_3_mz	ground_force_4_vx	ground_force_4_vy	ground_force_4_vz	ground_force_4_px	ground_force_4_py	ground_force_4_pz	ground_moment_4_mx	ground_moment_4_my	ground_moment_4_mz
      5.13000000	      0.00000000	     -0.00000000	      0.00000000	      0.00000000	      0.00000000	      0.00000000	      0.00000000	      0.00000000	      0.00000000	     14.44097424	     75.54635620	   -592.80157471	   -437.01061677	  -1159.02063164	      0.00000000	      0.00000000	      0.00000000	   1544.43993911	      9.41130811	    -67.46983420	   -430.66284180	   -432.57025441	   -670.05325614	      0.00000000	      0.00000000	      0.00000000	  -1209.79457933	      0.00000000	     -0.00000000	      0.00000000	      0.00000000	      0.00000000	      0.00000000	      0.00000000	      0.00000000	      0.00000000
      5.14000000	      0.00000000	     -0.00000000	      0.00000000	      0.00000000	      0.00000000	      0.00000000	      0.00000000	      0.00000000	      0.00000000	     14.57793999	     74.99526215	   -594.75500488	   -436.90658226	  -1158.56342318	      0.00000000	      0.00000000	      0.00000000	   1405.80475366	      9.91829001	    -66.94784633	   -434.31420898	   -432.31305987	   -669.68988883	      0.00000000	      0.00000000	     -0.00000000	  -1271.37985002	      0.00000000	     -0.00000000	      0.00000000	      0.00000000	      0.00000000	      0.00000000	      0.00000000	      0.00000000	      0.00000000
      5.15000000	      0.00000000	     -0.00000000	      0.00000000	      0.00000000	      0.00000000	      0.00000000	      0.00000000	      0.00000000	      0.00000000	     15.07657623	     74.78547668	   -596.72766113	   -436.64647994	  -1158.79458280	      0.00000000	      0.00000000	     -0.00000000	   1391.24227198	     10.42725268	    -66.49878784	   -436.78869629	   -431.82420990	   -669.32462817	      0.00000000	      0.00000000	      0.00000000	  -1259.86422464	      0.00000000	     -0.00000000	      0.00000000	      0.00000000	      0.00000000	      0.00000000	      0.00000000	      0.00000000	      0.00000000
      5.16000000	      0.00000000	     -0.00000000	      0.00000000	      0.00000000	      0.00000000	      0.00000000	      0.00000000	      0.00000000	      0.00000000	     15.56002140	     74.53596497	   -595.23718262	   -436.84999107	  -1159.31786174	      0.00000000	      0.00000000	      0.00000000	   1472.08993833	     10.20895282	    -66.37015623	   -436.06195068	   -432.12185325	   -669.50780761	      0.00000000	      0.00000000	      0.00000000	  -1289.68586212	      0.00000000	     -0.00000000	      0.00000000	      0.00000000	      0.00000000	      0.00000000	      0.00000000	      0.00000000	      0.00000000
      5.17000000	      0.00000000	     -0.00000000	      0.00000000	      0.00000000	      0.00000000	      0.00000000	      0.00000000	      0.00000000	      0.00000000	     15.42884064	     74.09023285	   -590.72064209	   -436.66747211	  -1159.16610405	      0.00000000	      0.00000000	      0.00000000	   1397.56291712	      9.40333741	    -66.20058523	   -434.56045532	   -432.01241582	   -669.54006932	      0.00000000	      0.00000000	     -0.00000000	  -1175.35990027	      0.00000000	     -0.00000000	      0.00000000	      0.00000000	      0.00000000	      0.00000000	      0.00000000	      0.00000000	      0.00000000
      5.18000000	      0.00000000	     -0.00000000	      0.00000000	      0.00000000	      0.00000000	      0.00000000	      0.00000000	      0.00000000	      0.00000000	     14.48584175	     73.70650482	   -585.94274902	   -436.67741560	  -1159.17595842	      0.00000000	      0.00000000	      0.00000000	   1418.46800527	      8.41399956	    -65.40557172	   -432.59887695	   -431.79733563	   -669.08048455	      0.00000000	      0.00000000	     -0.00000000	  -1212.14955615	      0.00000000	     -0.00000000	      0.00000000	      0.00000000	      0.00000000	      0.00000000	      0.00000000	      0.00000000	      0.00000000
      5.19000000	      0.00000000	     -0.00000000	      0.00000000	      0.00000000	      0.00000000	      0.00000000	      0.00000000	      0.00000000	      0.00000000	     12.70224380	     73.97413635	   -580.86120605	   -436.70380578	  -1159.10980463	      0.00000000	      0.00000000	      0.00000000	   1215.27693622	      8.01203157	    -65.30416177	   -430.34219360	   -431.86556581	   -669.52703324	      0.00000000	      0.00000000	      0.00000000	  -1301.74143428	      0.00000000	     -0.00000000	      0.00000000	      0.00000000	      0.00000000	      0.00000000	      0.00000000	      0.00000000	      0.00000000
      5.20000000	      0.00000000	     -0.00000000	      0.00000000	      0.00000000	      0.00000000	      0.00000000	      0.00000000	      0.00000000	      0.00000000	     12.18299007	     73.97824097	   -574.74719238	   -436.61615235	  -1159.23394797	      0.00000000	      0.00000000	      0.00000000	   1119.94365670	      8.03144651	    -64.86293863	   -427.89761353	   -432.21001071	   -669.84323006	      0.00000000	      0.00000000	     -0.00000000	  -1320.29637531	      0.00000000	     -0.00000000	      0.00000000	      0.00000000	      0.00000000	      0.00000000	      0.00000000	      0.00000000	      0.00000000
      5.21000000	      0.00000000	     -0.00000000	      0.00000000	      0.00000000	      0.00000000	      0.00000000	      0.00000000	      0.00000000	      0.00000000	     12.49668217	     73.71084595	   -570.54077148	   -436.88382775	  -1158.91852576	      0.00000000	      0.00000000	      0.00000000	   1156.76344391	      8.26816474	    -64.20387340	   -424.38195801	   -431.28426211	   -669.64403086	      0.00000000	      0.00000000	     -0.00000000	  -1322.53363768	      0.00000000	     -0.00000000	      0.00000000	      0.00000000	      0.00000000	      0.00000000	      0.00000000	      0.00000000	      0.00000000
      5.22000000	      0.00000000	     -0.00000000	      0.00000000	      0.00000000	      0.00000000	      0.00000000	      0.00000000	      0.00000000	      0.00000000	     14.05234241	     73.58220673	   -569.49597168	   -436.55132530	  -1159.58881562	      0.00000000	      0.00000000	      0.00000000	   1110.09854737	      8.78236213	    -63.83260804	   -421.56637573	   -432.10454046	   -670.36758810	      0.00000000	     -0.00000000	     -0.00000000	  -1538.00929508	      0.00000000	     -0.00000000	      0.00000000	      0.00000000	      0.00000000	      0.00000000	      0.00000000	      0.00000000	      0.00000000
      5.23000000	      0.00000000	     -0.00000000	      0.00000000	      0.00000000	      0.00000000	      0.00000000	      0.00000000	      0.00000000	      0.00000000	     16.05476379	     73.22219086	   -564.02832031	   -436.84829240	  -1159.21214582	      0.00000000	      0.00000000	      0.00000000	   1209.18657573	      9.13165682	    -63.46741947	   -422.42977905	   -431.65039473	   -669.25419926	      0.00000000	      0.00000000	     -0.00000000	  -1377.23133613	      0.00000000	     -0.00000000	      0.00000000	      0.00000000	      0.00000000	      0.00000000	      0.00000000	      0.00000000	      0.00000000
      5.24000000	      0.00000000	     -0.00000000	      0.00000000	      0.00000000	      0.00000000	      0.00000000	      0.00000000	      0.00000000	      0.00000000	     17.58020020	     73.04380035	   -561.51080322	   -436.94151597	  -1159.44495610	      0.00000000	      0.00000000	      0.00000000	   1392.77645235	      9.36691012	    -63.90337454	   -422.00173950	   -431.68013582	   -669.32807952	      0.00000000	     -0.00000000	     -0.00000000	  -1446.98437477	      0.00000000	     -0.00000000	      0.00000000	      0.00000000	      0.00000000	      0.00000000	      0.00000000	      0.00000000	      0.00000000
      5.25000000	      0.00000000	     -0.00000000	      0.00000000	      0.00000000	      0.00000000	      0.00000000	      0.00000000	      0.00000000	      0.00000000	     18.24750137	     72.99517059	   -558.02429199	   -437.15678943	  -1159.34642309	      0.00000000	      0.00000000	      0.00000000	   1472.72336111	      9.66946996	    -64.04329766	   -421.81494141	   -432.22693578	   -669.86612216	      0.00000000	      0.00000000	     -0.00000000	  -1524.73982286	      0.00000000	     -0.00000000	      0.00000000	      0.00000000	      0.00000000	      0.00000000	      0.00000000	      0.00000000	      0.00000000
      5.26000000	      0.00000000	     -0.00000000	      0.00000000	      0.00000000	      0.00000000	      0.00000000	      0.00000000	      0.00000000	      0.00000000	     18.28334618	     73.57834625	   -555.53302002	   -436.97814544	  -1159.16489653	      0.00000000	      0.00000000	      0.00000000	   1434.79036332	      9.71141157	    -64.38170709	   -424.27621460	   -431.66339954	   -669.24334691	      0.00000000	      0.00000000	     -0.00000000	  -1407.05941605	      0.00000000	     -0.00000000	      0.00000000	      0.00000000	      0.00000000	      0.00000000	      0.00000000	      0.00000000	      0.00000000
